<svg xmlns="http://www.w3.org/2000/svg" viewBox="0 0 238.8 32.3"><switch><g><path d="M115.9 0c2.7.7 3.8 2.7 4.5 5.3 1.5 5.7 3.2 11.3 4.8 16.9.1.2.1.4.3.8.5-1.7 1-3.3 1.5-4.8 1.6-5.1 3.1-10.2 4.7-15.3.1-.3.4-.5.6-.7.2.2.5.4.6.7 2 6.3 4.1 12.7 6.1 19 .1.3.2.6.4 1.1.4-1.3.8-2.4 1.1-3.5 1.1-3.6 2.2-7.3 3.4-10.9v-.1c1-3.3.5-4.1-3-4.4v-1h10.6v1c-.6.1-1.2.1-1.7.2-1.4.2-2.6 1-3.1 2.3-.9 2.4-1.7 4.8-2.5 7.2-1.8 5.6-3.5 11.1-5.3 16.7-.1.4-.1 1-.7.8-.3-.1-.6-.5-.6-.8-1.9-6.3-3.8-12.5-5.8-18.8-.1-.3-.2-.6-.3-1.1-.2.5-.3.8-.4 1-2 6.3-4.1 12.6-6.1 18.9-.1.3-.4.5-.7.8-.2-.3-.6-.5-.7-.8-1.7-5.6-3.5-11.2-5.2-16.8-.1-.3-.2-.5-.3-.9-1.6 1.6-3.6 2.2-5.9 2.6 1.2 1.8 1.7 3.6 1.6 5.6 0 6.4-3.9 10.6-10.3 11.2-3 .3-6 0-8.7-1.4-3.6-1.9-5.5-4.9-5.8-8.9-.3-3.1.6-5.7 2.6-8.1-2.4-3.2-2.7-6.3-.7-9.2 1.8-2.5 5.6-3.6 8.5-2.3l.6.3c.8.5 1.2 1.4 1 2.2-.2.7-.6 1.1-1.3 1.2-1 .2-1.7 0-2.3-.9-.8-1.2-1.5-1.5-2.9-1-1.7.6-2.7 1.9-3 3.6-.4 1.8 0 3.5 1.2 4.7 1.5-.5 2.8-1 4.2-1.2 1.1-.1 2.3.2 3.3.4.8.2 1.4.9 1.4 1.8 0 1-.5 1.6-1.3 2-2 .9-4 .7-6-.1-.3-.1-.5-.2-.9-.4-.9 1.7-1.1 3.4-1 5.2.3 4.3 3.2 7.3 7.9 8.1 3.6.6 7-.1 9.8-2.6 2.4-2 2.9-5.2 1.5-7.7-.9-1.5-2.5-2.3-4.2-2-2 .3-3.4 1.5-3.8 3.2-.2 1.2.1 2.2 1 3 .7.7 1.9.7 2.5.2.2-.2.4-.6.3-.9 0-.2-.4-.3-.7-.5-.4-.2-1-.4-1-.7-.1-.5 0-1.2.3-1.6.6-.9 1.9-.8 2.7-.1 1.2 1.1 1.2 3 0 4.2-1.3 1.3-2.8 1.4-4.4.8-1.6-.6-2.3-1.8-2.4-3.4-.1-2.5.8-4.6 2.9-6 2.2-1.6 4.8-2.1 7.4-2.7 1.3-.3 2.6-.6 3.8-1.2 2.7-1.4 3.5-4.4 2.1-6.9-.8-1.4-2-2.2-3.7-2.1-.3 0-.6.3-.9.4.1.2.2.5.4.7.7.8.4 2-.6 2.3-.9.3-1.7.1-2.3-.6-.6-.8-.8-2.1 0-2.8.7-.7 1.6-1.1 2.4-1.6.8.4 1.7.4 2.5.4zM94.3 13.8c1.6.9 3.3 1 5 .6.3-.1.6-.4.6-.7 0-.2-.2-.6-.5-.7-1.3-.8-4-.4-5.1.8zM0 31.2v-1.4h1c1.7-.1 2.9-.9 3.3-2.6.2-.9.3-1.8.3-2.7v-15c0-.8-.1-1.7-.3-2.5C3.9 5.3 2.8 4.4 1 4.3c-.3 0-.6 0-1-.1 0-.5.1-.9.1-1.3.1-.1.2-.1.2-.1 4.9 0 9.8-.1 14.8.1 3.9.2 6.9 3.2 7.4 6.8.4 3-1.1 5.9-4 7.6-1.7 1-3.6 1.4-5.6 1.4H8.3c.1 2.8.1 5.5.4 8.1.2 2 1.5 2.9 3.6 2.9h.7v1.4c-4.3.1-8.6.1-13 .1zm8.5-14.1c1.9 0 3.7.1 5.5 0 1.7-.2 3.1-1.2 3.9-2.7 1.2-2.4 1.3-4.8-.1-7.1-.7-1.2-1.6-2.1-2.9-2.5-2.1-.7-4.2-.2-6.4-.4v12.7zM180.6 17h-2.4c-.3-.5-.2-.8.4-1 3.3-1.2 4.9-5.1 3.5-8.4-.2-.5-.6-1.1-1-1.5-2-1.8-4.5-2.2-7.1-1.7-.7.1-1.5.8-2 1.4-.3.3-.3 1-.3 1.6 0 .3.2.5.2.8.3 1.3-.3 2.2-1.5 2.4-1.4.2-2.3-.4-2.5-1.8-.2-1.8.6-3.1 1.9-4.1 3.2-2.5 8.8-2.4 11.9.2 1.5 1.2 2.3 2.8 2.3 4.7v5.9h4.3v1.4h-4.2v10c0 1.1.1 2.2 1.2 2.8 1.2.6 2.3.2 3.2-.6.3-.3.6-.5 1-.8l.9.9c-1.9 2.4-4.1 3.1-7.1 2.2-1.8-.6-2.8-2.2-2.8-4.3v-9c.1-.4.1-.7.1-1.1zM29.4 14.6c2.9.2 5.2 1 7.1 3 3.7 3.6 3.2 9.6-1.1 12.5-3.5 2.3-7.3 2.6-11 .6-3-1.6-4.7-4.3-4.5-7.8.2-3.6 2.3-6 5.5-7.3 1.4-.6 2.3-.9 4-1zm5.8 8.9c0-2-.4-3.6-1.5-5.1-2.1-2.9-6.1-3-8.3-.2-2.3 2.9-2.3 7.6.2 10.4 1.9 2.2 5.3 2.4 7.4.3 1.6-1.5 2.1-3.4 2.2-5.4zM206.4 22h-11.2c-.7 2.8.6 6.3 2.7 7.6 2.4 1.5 5.3 1 8.5-1.6.2.3.5.7.7 1.1-1.2 1.3-2.7 2.4-4.7 2.6-1.9.3-3.8.1-5.6-.4-3.7-1.1-5.7-4.1-5.6-8.1.2-5.6 5.2-9.4 10.6-8.1 2.7.5 5.2 3.2 4.6 6.9zm-3.3-1.5c.2-2.1-.4-3.3-1.9-3.9-2.6-1.2-5.5.9-5.8 3.9h7.7zM57 22H45.8c-.7 2.7.6 6.2 2.6 7.5 2.5 1.6 5.3 1.1 8.5-1.5.3.3.6.5.9.9-1.7 1.9-3.7 2.9-6.2 2.9-1.4 0-2.8-.1-4.1-.5-3.7-1-5.8-4.1-5.7-8 .2-5.7 5.1-9.5 10.6-8.3 3.2.7 5.3 3.8 4.6 7zm-3.3-1.5c.2-2.3-.6-3.6-2.3-4.1-2.5-.7-5.2 1.3-5.4 4.1h7.7zM157.8 29.8v1.4h-11.3v-1.4c.3 0 .6 0 .9-.1 1.5-.2 2.6-.9 2.7-2.4.1-2.7.2-5.5 0-8.2-.1-1.7-1-2.2-3.4-2.4 0-.3-.1-.6-.2-1 1.4-.2 2.8-.3 4.2-.5.5-.1.9-.2 1.4-.2 1.1-.2 1.2-.2 1.4 1 .1.7.2 1.5.3 2.3.5-.6.8-1.2 1.3-1.7 1.5-1.7 3.4-2.1 5.5-1.5 1.7.5 2.5 2 2 3.7-.2.9-.9 1.3-1.8 1.3s-1.4-.5-1.5-1.5c0-.2 0-.4-.1-.5-.2-1.3-1.3-1.9-2.4-1.2-1.7 1.1-2.7 2.7-2.9 4.7-.2 1.7-.1 3.5 0 5.2.1 2 1.1 2.9 3.2 3.1.3-.2.5-.2.7-.1zM220.4 29.8v1.4h-11.2v-1.4c.3 0 .7-.1 1.1-.1 1.5-.2 2.5-1 2.6-2.4.1-2.7.2-5.4 0-8.1-.1-1.9-1.1-2.4-3.4-2.5v-.9c2-.3 4.1-.6 6.1-.9.2 0 .6.3.6.5.2.9.3 1.8.5 2.8.4-.5.7-1 1.1-1.4 1.4-1.8 3.3-2.2 5.4-1.8 1.8.4 2.7 2.1 2.2 3.8-.3.9-.9 1.3-1.9 1.2-.9-.1-1.3-.6-1.4-1.5v-.4c-.1-1.5-1.3-2.1-2.5-1.2-1.8 1.2-2.7 3-2.9 5.1-.1 1.5-.1 3.1 0 4.6.2 2.2 1 3 3.2 3.2h.5zM74.1 24.4h.9c.1.3.1.7.2 1 .4 2.6 2.7 4.5 5.2 4.3 1.1-.1 2.1-.8 2.3-1.8.3-1.1-.1-1.8-1.2-2.5l-4.8-3c-1.2-.8-2.1-1.8-2.2-3.3-.3-2.5 1.1-4.4 3.7-4.9 1.8-.3 3.4 0 5.1 1 .2-.4.3-.6.4-.9h.9v5.3h-.7c-.5-.9-.7-1.9-1.3-2.6-.9-1.2-2.3-1.6-3.7-1.2-.5.2-1.1.7-1.4 1.2-.3.6-.1 1.3.5 1.8 1.3 1 2.6 1.9 4 2.8.7.5 1.4.9 2 1.4 2.2 1.7 2.3 4.6.4 6.6-1.8 1.9-5.4 2.3-7.6.9-1.4-.9-1.4-.9-1.8.7h-.8c-.1-2.3-.1-4.5-.1-6.8zM236.3 15.2c.2-.4.3-.6.4-.9h.9v5.3h-.9c-.1-.5-.2-1-.4-1.5-.7-1.8-2.5-2.8-4.3-2.4-.7.2-1.2.5-1.5 1.3-.2.7 0 1.3.6 1.8 1.1.9 2.3 1.7 3.5 2.5.8.5 1.6 1 2.3 1.5 2.7 1.9 2.3 5.6-.1 7.3-2 1.5-5.2 1.5-7.3.1-.8-.6-1.1-.5-1.3.4-.1.6-.4.7-1 .6v-6.7h.9c.1.5.2.9.3 1.3.6 2.4 2.7 4.1 5 4 1.2 0 2.2-.8 2.5-1.9.3-1.1-.1-1.8-1.3-2.5-1.5-.9-3.1-1.9-4.6-2.9-1.3-.8-2.2-1.9-2.4-3.5-.3-2.5 1.1-4.4 3.6-4.8 1.8-.3 3.4 0 5.1 1zM61.9 16.9h-2.5c.2-.4.3-.8.5-.8 2.5-.9 3.6-3.1 4.2-5.4 0-.1.1-.1.1-.2h1.4v5h4.3V17h-4.3v10c0 1.1 0 2.2 1.2 2.8 1.2.6 2.3.2 3.2-.6.3-.3.6-.5 1-.9.3.3.6.6.8.9-1.6 2.3-5 3.3-7.4 2.2-2-.9-2.5-2.6-2.5-4.6v-8.7-1.2z"/><path d="M165.2 16.7c0-.3-.1-.6-.1-1 2.4-.3 4.8-.6 7.3-.9V25.5c0 .4 0 .9.1 1.3.3 1.9 1.2 2.7 3.1 2.9h.7v1.4h-11.4v-1.4c.2 0 .3-.1.4-.1 2.2-.2 3.2-1 3.3-3.1.2-2.2.2-4.5 0-6.7-.1-2.4-.9-3-3.4-3.1z"/></g></switch></svg>