<?xml version="1.0" encoding="utf-8"?>
<!-- Generator: Adobe Illustrator 15.0.0, SVG Export Plug-In . SVG Version: 6.00 Build 0)  -->
<!DOCTYPE svg PUBLIC "-//W3C//DTD SVG 1.1//EN" "http://www.w3.org/Graphics/SVG/1.1/DTD/svg11.dtd">
<svg version="1.1" id="Layer_1" xmlns="http://www.w3.org/2000/svg" xmlns:xlink="http://www.w3.org/1999/xlink" x="0px" y="0px"
	 width="144px" height="144px" viewBox="0 0 144 144" enable-background="new 0 0 144 144" xml:space="preserve">
<g>
	<path fill="#72B351" d="M120.009,74.021c0,26.671-9.669,53.678-32.309,64.312c30.609-6.002,53.709-36.984,53.709-69.351
		c0-36.782-29.815-66.599-66.598-66.599c-10.113,0-21.697,0.259-30.279,4.292c4.169-0.818,10.484,0.748,14.892,0.748
		C96.205,7.423,120.009,37.238,120.009,74.021z"/>
	<path fill="#F26433" d="M73.137,118.194c26.673,0,54.647-6.33,65.283-28.97c-6.005,30.609-37.955,53.749-70.323,53.749
		c-36.781,0-66.599-29.816-66.599-66.599c0-10.11,0.261-21.694,4.291-30.277c-0.817,4.17,0.749,10.483,0.749,14.892
		C6.537,97.769,36.354,118.194,73.137,118.194z"/>
	<path fill="#AF60A2" d="M22.898,71.336c0-26.671,9.669-53.675,32.31-64.312C24.596,13.028,1.498,44.007,1.498,76.375
		c0,36.782,29.817,66.599,66.598,66.599c10.112,0,22.822-3.389,31.405-7.424c-4.171,0.821-11.609,2.384-16.02,2.384
		C46.702,137.934,22.898,108.12,22.898,71.336z"/>
	<path fill="#229CC1" d="M73.137,28.539c26.669,0,55.682,2.91,66.316,25.55c-6.004-30.611-36.551-53.709-71.357-53.709
		c-36.781,0-66.598,29.817-66.598,66.599c0,10.11-0.286,22.891,3.747,31.475c-0.819-4.169,0.679-11.723,1.292-16.088
		C12.058,43.052,36.352,28.539,73.137,28.539z"/>
</g>
</svg>
